<svg width="267" height="84" viewBox="0 0 267 84" fill="none" xmlns="http://www.w3.org/2000/svg">
<path d="M15.8218 0.287109H16.0757C16.1603 0.287109 16.2767 0.403483 16.4248 0.63623V25.646C16.6576 25.8999 16.7739 26.1326 16.7739 26.3442V26.5981C16.7739 26.8097 16.6576 27.0425 16.4248 27.2964V27.8994H16.7739C24.2007 27.8994 29.1942 30.4808 31.7544 35.6436C32.3892 37.2939 32.7065 38.5 32.7065 39.2617V39.3569C32.7065 40.3937 32.1353 40.9121 30.9927 40.9121H25.8193C24.6556 40.8275 24.0737 40.362 24.0737 39.5156C23.3755 37.6113 22.5186 36.437 21.5029 35.9927C20.3392 35.1886 18.6465 34.7866 16.4248 34.7866H15.7266C12.9336 34.7866 11.0928 35.9292 10.2041 38.2144C10.0983 38.7433 10.0454 39.1242 10.0454 39.3569V39.8647C10.0454 41.7056 12.2248 43.1126 16.5835 44.0859C17.0913 44.3187 19.6515 44.9746 24.2642 46.0537C26.5916 46.6885 28.5382 47.6724 30.104 49.0054C32.8123 51.1213 34.1665 53.9036 34.1665 57.3525C34.1665 62.3672 31.7544 66.07 26.9302 68.4609C24.2853 69.7305 21.0374 70.3652 17.1865 70.3652C13.9492 70.3652 10.7965 69.7093 7.72852 68.3975C6.22624 67.7627 4.55469 66.4932 2.71387 64.5889C1.23275 62.5788 0.344076 60.283 0.0478516 57.7017V57.1938C0.0478516 56.4744 0.619141 56.0724 1.76172 55.9878H7.12549C8.0988 55.9878 8.67008 56.7072 8.83936 58.146C9.57992 60.1561 10.7542 61.5632 12.3623 62.3672C14.182 63.1712 15.991 63.5732 17.7896 63.5732C20.1805 63.5732 22.3387 62.875 24.2642 61.4785C25.1317 60.2513 25.5654 59.2463 25.5654 58.4634C25.5654 55.7127 22.6878 53.7661 16.9326 52.6235C12.5316 51.5656 9.08268 50.4124 6.58594 49.1641C3.09473 47.027 1.34912 43.9272 1.34912 39.8647C1.34912 36.5005 2.92546 33.5382 6.07812 30.978C7.70736 29.6662 9.83382 28.7775 12.4575 28.312C12.4575 28.2485 13.4308 28.111 15.3774 27.8994C15.3774 27.9417 15.4092 27.9629 15.4727 27.9629V27.4551C15.0283 27.4551 14.7638 27.1165 14.6792 26.4395C14.8062 25.847 15.0072 25.5508 15.2822 25.5508C15.2822 24.3447 14.8273 23.255 13.9175 22.2817C13.8328 22.5145 13.6318 22.6309 13.3145 22.6309H12.8066C12.3411 22.377 12.1084 22.0596 12.1084 21.6787V21.52C12.1084 21.0334 12.4258 20.716 13.0605 20.5679H13.2192C13.7482 20.5679 14.0973 20.9382 14.2666 21.6787C14.584 21.6787 14.9543 22.1654 15.3774 23.1387H15.4727V0.63623C15.4727 0.551595 15.589 0.435221 15.8218 0.287109ZM14.5205 31.1685C14.5205 31.9937 15.0389 32.4803 16.0757 32.6284C16.9432 32.438 17.377 31.9196 17.377 31.0732C17.1442 30.2692 16.8268 29.8672 16.4248 29.8672V30.3115C16.4248 30.3962 16.3084 30.5125 16.0757 30.6606H15.8218C15.7371 30.6606 15.6208 30.5443 15.4727 30.3115V29.8672H15.3774C14.8062 30.1846 14.5205 30.6183 14.5205 31.1685ZM54.8599 0.731445H55.082C55.1455 0.731445 55.2407 0.82666 55.3677 1.01709V39.3252H55.4629C55.4629 39.029 55.7803 38.5952 56.415 38.0239C56.5632 37.4315 56.87 37.1353 57.3354 37.1353H57.3989C57.9067 37.1353 58.2135 37.4632 58.3193 38.1191C58.1501 38.6693 57.875 38.9443 57.4941 38.9443H57.2402C57.071 38.9443 56.8805 38.8385 56.6689 38.627C55.9072 39.4733 55.5264 40.3514 55.5264 41.2612V41.4199C55.8226 41.7161 55.9707 41.9701 55.9707 42.1816V42.4038C55.9707 42.7424 55.7697 42.9963 55.3677 43.1655L56.5737 42.7847H56.8911C57.4836 42.7847 57.9596 43.6099 58.3193 45.2603C62.6357 58.8442 64.7939 65.8161 64.7939 66.1758V66.3345C64.7939 66.9692 63.736 67.5194 61.6201 67.9849C60.6045 68.3869 59.8534 68.5879 59.3667 68.5879C59.0282 68.5667 58.5309 68.0166 57.875 66.9375C57.6634 66.8317 57.5153 66.7788 57.4307 66.7788C57.0498 67.1385 56.4891 67.9214 55.7485 69.1274C53.4634 71.4338 50.6069 72.5869 47.1792 72.5869H46.8618C44.4497 72.5869 42.4185 71.2327 40.7681 68.5244C39.964 67.0645 38.3348 62.1662 35.8804 53.8296C35.1821 51.7983 34.833 50.624 34.833 50.3066C34.833 49.5872 35.7111 49.0583 37.4673 48.7197C39.0965 48.1273 40.1545 47.8311 40.6411 47.8311C41.2759 47.8311 41.953 49.3122 42.6724 52.2744C44.7671 59.0664 46.1636 63.1289 46.8618 64.4619C47.7928 65.668 48.8719 66.271 50.0991 66.271H50.4165C52.1727 66.271 53.6538 65.4352 54.8599 63.7637C55.2619 63.0231 55.4629 62.3037 55.4629 61.6055V61.0024C55.4629 59.5636 54.1828 54.9933 51.6226 47.2915L51.083 45.3237C51.083 44.6043 51.813 44.0859 53.2729 43.7686L54.5425 43.0703C54.2886 42.8164 54.1616 42.5942 54.1616 42.4038V42.2451C54.1616 42.0335 54.2886 41.7796 54.5425 41.4834V1.01709C54.5425 0.953613 54.6483 0.858398 54.8599 0.731445ZM53.7173 46.4028C53.7173 47.1222 54.1722 47.5454 55.082 47.6724C55.8226 47.5031 56.1929 47.0482 56.1929 46.3076C56.0024 45.6094 55.7274 45.2603 55.3677 45.2603V45.6411C55.3677 45.7257 55.2725 45.821 55.082 45.9268H54.8599C54.7752 45.9268 54.6694 45.8315 54.5425 45.6411V45.2603H54.479C53.9712 45.5353 53.7173 45.9162 53.7173 46.4028ZM83.71 0.731445H83.9639C84.0485 0.731445 84.1543 0.83724 84.2812 1.04883V35.7705H84.3765C84.3765 35.4531 84.7362 34.9771 85.4556 34.3423C85.6248 33.6864 85.9634 33.3584 86.4712 33.3584H86.5347C87.106 33.3584 87.4445 33.7181 87.5503 34.4375C87.381 35.0511 87.0742 35.3579 86.6299 35.3579H86.376C86.1855 35.3579 85.9634 35.2415 85.7095 35.0088C84.8843 35.9398 84.4717 36.9131 84.4717 37.9287V38.0874C84.7891 38.4259 84.9478 38.7116 84.9478 38.9443V39.1982C84.9478 39.5579 84.7256 39.833 84.2812 40.0234V40.6899C85.8047 40.6899 87.8148 41.5786 90.3115 43.356C92.237 45.2814 93.57 47.228 94.3105 49.1958C95.2415 52.0734 95.707 54.4326 95.707 56.2734C95.6647 56.6331 95.6436 57.0246 95.6436 57.4478C95.6436 57.5747 95.6647 57.6911 95.707 57.7969C95.707 59.7858 95.0405 62.145 93.7075 64.8745C91.3377 68.5985 87.8359 70.4604 83.2021 70.4604C81.2979 70.4604 79.2454 69.7939 77.0449 68.4609C76.9391 68.3975 76.8016 68.3657 76.6323 68.3657C76.3573 68.6831 76.2197 68.8841 76.2197 68.9688C76.2197 69.0111 76.2409 69.0322 76.2832 69.0322L76.2197 69.6353V69.6987L78.3145 81.791C78.3145 82.8278 77.1825 83.3462 74.9185 83.3462C73.6489 83.5789 72.6968 83.6953 72.062 83.6953H71.9985C71.1733 83.6953 70.6973 83.1134 70.5703 81.9497L65.1113 44.689C65.1113 43.8003 66.0317 43.3031 67.8726 43.1973C68.1265 43.1973 69.2373 43.0597 71.2051 42.7847C71.8398 42.7847 72.3688 43.4194 72.792 44.689L73.2046 44.7842C73.5431 44.7842 74.125 44.3081 74.9502 43.356C76.9391 41.7479 78.7165 40.9438 80.2822 40.9438C80.2822 40.7746 81.0863 40.6582 82.6943 40.5947H83.3926V39.9282C83.0964 39.6532 82.9482 39.4098 82.9482 39.1982V39.0078C82.9482 38.7751 83.0964 38.5 83.3926 38.1826V1.04883C83.3926 0.964193 83.4984 0.858398 83.71 0.731445ZM82.4722 43.6099C82.4722 44.4139 82.9694 44.89 83.9639 45.0381C84.7891 44.8477 85.2017 44.3398 85.2017 43.5146C84.9901 42.7529 84.6833 42.3721 84.2812 42.3721V42.7847C84.2812 42.8693 84.1755 42.9751 83.9639 43.1021H83.71C83.6253 43.1021 83.5195 42.9963 83.3926 42.7847V42.3721H83.2974C82.7472 42.6683 82.4722 43.0809 82.4722 43.6099ZM74.125 54.9404C74.125 58.6009 75.2041 61.4997 77.3623 63.6367C78.7588 64.5254 79.8696 64.9697 80.6948 64.9697C83.9533 64.9697 86.1009 63.7425 87.1377 61.2881C87.6243 60.3148 87.8677 58.95 87.8677 57.1938C87.7619 52.2004 86.2702 48.9207 83.3926 47.355C82.5251 46.9741 81.6258 46.7837 80.6948 46.7837C77.394 46.7837 75.3099 48.4235 74.4424 51.7031C74.2308 52.5283 74.125 53.6074 74.125 54.9404ZM111.798 0.63623H112.052C112.137 0.63623 112.253 0.752604 112.401 0.985352V34.6914C112.825 34.374 113.227 33.8662 113.607 33.168C113.798 32.9987 113.988 32.9141 114.179 32.9141H114.369C114.983 32.9987 115.29 33.3055 115.29 33.8345V34.2788C115.057 34.7231 114.782 34.9453 114.464 34.9453H114.179C113.988 34.9453 113.734 34.8289 113.417 34.5962C112.74 35.4849 112.401 36.2043 112.401 36.7544V37.9604C112.634 38.1932 112.75 38.4154 112.75 38.627V38.8809C112.75 39.0924 112.634 39.3252 112.401 39.5791V40.1821C114.327 40.1821 116.549 40.9544 119.066 42.499C121.33 44.4033 122.907 46.3076 123.795 48.2119C124.324 48.9313 124.864 50.4442 125.414 52.7505V52.9409C125.414 53.7661 123.817 54.4749 120.622 55.0674C112.01 57.3525 107.217 58.6644 106.244 59.0029C105.948 59.3203 105.8 59.6694 105.8 60.0503V60.3042C106.435 62.0815 107.429 63.3617 108.783 64.1445C109.693 64.61 110.444 64.8428 111.037 64.8428H111.608C114.972 64.8428 117.427 63.4463 118.971 60.6533C119.479 59.3415 120.315 58.6855 121.479 58.6855C122.727 58.2835 123.838 57.9979 124.811 57.8286C125.552 57.8286 125.922 58.1989 125.922 58.9395C125.922 60.6322 125.181 62.6846 123.7 65.0967C121.944 67.4665 119.458 69.1169 116.242 70.0479C114.507 70.6826 112.592 71 110.497 71C108.318 70.7884 106.636 70.4181 105.451 69.8892C102.298 68.4292 99.9917 66.1758 98.5317 63.1289C97.2199 60.6322 96.564 57.8286 96.564 54.7183V54.4644C96.564 54.3374 96.5322 54.2316 96.4688 54.147C96.7227 51.2905 97.6113 48.7197 99.1348 46.4346C100.997 43.7262 103.673 41.8431 107.165 40.7852C108.773 40.3197 110.201 40.0869 111.449 40.0869V39.7378C111.068 39.7378 110.814 39.4521 110.688 38.8809V38.7222C110.814 38.0874 111.068 37.77 111.449 37.77V0.985352C111.449 0.900716 111.566 0.784342 111.798 0.63623ZM110.497 43.4194C110.497 44.2446 111.015 44.7313 112.052 44.8794C112.899 44.7101 113.322 44.2023 113.322 43.356C113.11 42.5519 112.803 42.1499 112.401 42.1499V42.5625C112.401 42.6683 112.285 42.7847 112.052 42.9116H111.798C111.714 42.9116 111.597 42.7952 111.449 42.5625V42.1499H111.354C110.783 42.4673 110.497 42.8905 110.497 43.4194ZM103.927 52.4966C103.927 53.1102 104.181 53.5651 104.689 53.8613H105.102C105.821 53.8613 109.333 52.9515 115.639 51.1318C115.935 50.8356 116.083 50.5817 116.083 50.3701V50.1162C116.083 49.2487 115.194 48.1908 113.417 46.9424C112.571 46.4769 111.714 46.2441 110.846 46.2441C108.096 46.2441 105.99 47.4502 104.53 49.8623C104.128 50.8991 103.927 51.7772 103.927 52.4966ZM131.825 0.509277H132.079C132.185 0.509277 132.301 0.625651 132.428 0.858398V34.374H132.523C132.523 34.0355 132.894 33.5488 133.634 32.9141C133.804 32.2158 134.153 31.8667 134.682 31.8667H134.777C135.348 31.8667 135.687 32.237 135.792 32.9775C135.623 33.6123 135.306 33.9297 134.84 33.9297H134.586C134.375 33.9297 134.142 33.8133 133.888 33.5806C133.042 34.5327 132.619 35.5378 132.619 36.5957V36.7861C132.957 37.1247 133.126 37.4103 133.126 37.6431V37.897C133.126 38.2778 132.894 38.5635 132.428 38.7539V38.9443C134.798 39.0924 135.983 39.3781 135.983 39.8013C136.089 40.161 136.142 40.4149 136.142 40.563V41.769C136.142 42.4461 136.311 42.8799 136.649 43.0703C136.967 43.0492 137.517 42.6471 138.3 41.8643C140.395 40.1927 142.51 39.3569 144.647 39.3569H145.346C146.785 39.3569 147.504 39.96 147.504 41.166C147.292 44.8477 146.975 46.6885 146.552 46.6885C146.34 46.7943 146.107 46.8472 145.854 46.8472H145.441C145.187 46.8472 144.552 46.7943 143.537 46.6885C140.151 46.6885 137.887 47.8945 136.745 50.3066C136.004 51.0049 135.454 53.3535 135.094 57.3525C134.608 64.5889 134.153 68.207 133.729 68.207C133.306 68.3763 132.957 68.4609 132.682 68.4609C128.45 68.3128 126.334 67.8579 126.334 67.0962L126.239 66.5566C127.742 49.0794 128.577 40.0763 128.747 39.5474C129.043 39.0184 129.582 38.7539 130.365 38.7539C130.852 38.8174 131.222 38.8491 131.476 38.8491V38.6587C131.201 38.3625 131.063 38.1086 131.063 37.897V37.7383C131.063 37.4844 131.201 37.1882 131.476 36.8496V0.858398C131.476 0.773763 131.592 0.657389 131.825 0.509277ZM130.556 42.4673C130.556 43.2925 131.063 43.7791 132.079 43.9272C132.947 43.7368 133.38 43.2184 133.38 42.3721C133.169 41.568 132.851 41.166 132.428 41.166V41.6104C132.428 41.695 132.312 41.8114 132.079 41.9595H131.825C131.741 41.9595 131.624 41.8431 131.476 41.6104V41.166H131.413C130.841 41.4834 130.556 41.9172 130.556 42.4673ZM178.576 0.287109H178.83C178.914 0.287109 179.031 0.403483 179.179 0.63623V25.646C179.411 25.8999 179.528 26.1326 179.528 26.3442V26.5981C179.528 26.8097 179.411 27.0425 179.179 27.2964V27.8994H179.528C186.955 27.8994 191.948 30.4808 194.508 35.6436C195.143 37.2939 195.46 38.5 195.46 39.2617V39.3569C195.46 40.3937 194.889 40.9121 193.747 40.9121H188.573C187.41 40.8275 186.828 40.362 186.828 39.5156C186.129 37.6113 185.272 36.437 184.257 35.9927C183.093 35.1886 181.4 34.7866 179.179 34.7866H178.48C175.688 34.7866 173.847 35.9292 172.958 38.2144C172.852 38.7433 172.799 39.1242 172.799 39.3569V39.8647C172.799 41.7056 174.979 43.1126 179.337 44.0859C179.845 44.3187 182.405 44.9746 187.018 46.0537C189.346 46.6885 191.292 47.6724 192.858 49.0054C195.566 51.1213 196.92 53.9036 196.92 57.3525C196.92 62.3672 194.508 66.07 189.684 68.4609C187.039 69.7305 183.791 70.3652 179.94 70.3652C176.703 70.3652 173.55 69.7093 170.482 68.3975C168.98 67.7627 167.309 66.4932 165.468 64.5889C163.987 62.5788 163.098 60.283 162.802 57.7017V57.1938C162.802 56.4744 163.373 56.0724 164.516 55.9878H169.879C170.853 55.9878 171.424 56.7072 171.593 58.146C172.334 60.1561 173.508 61.5632 175.116 62.3672C176.936 63.1712 178.745 63.5732 180.543 63.5732C182.934 63.5732 185.093 62.875 187.018 61.4785C187.886 60.2513 188.319 59.2463 188.319 58.4634C188.319 55.7127 185.442 53.7661 179.687 52.6235C175.285 51.5656 171.837 50.4124 169.34 49.1641C165.849 47.027 164.103 43.9272 164.103 39.8647C164.103 36.5005 165.679 33.5382 168.832 30.978C170.461 29.6662 172.588 28.7775 175.211 28.312C175.211 28.2485 176.185 28.111 178.131 27.8994C178.131 27.9417 178.163 27.9629 178.227 27.9629V27.4551C177.782 27.4551 177.518 27.1165 177.433 26.4395C177.56 25.847 177.761 25.5508 178.036 25.5508C178.036 24.3447 177.581 23.255 176.671 22.2817C176.587 22.5145 176.386 22.6309 176.068 22.6309H175.561C175.095 22.377 174.862 22.0596 174.862 21.6787V21.52C174.862 21.0334 175.18 20.716 175.814 20.5679H175.973C176.502 20.5679 176.851 20.9382 177.021 21.6787C177.338 21.6787 177.708 22.1654 178.131 23.1387H178.227V0.63623C178.227 0.551595 178.343 0.435221 178.576 0.287109ZM177.274 31.1685C177.274 31.9937 177.793 32.4803 178.83 32.6284C179.697 32.438 180.131 31.9196 180.131 31.0732C179.898 30.2692 179.581 29.8672 179.179 29.8672V30.3115C179.179 30.3962 179.062 30.5125 178.83 30.6606H178.576C178.491 30.6606 178.375 30.5443 178.227 30.3115V29.8672H178.131C177.56 30.1846 177.274 30.6183 177.274 31.1685ZM217.201 0.667969H217.423C217.508 0.667969 217.624 0.773763 217.772 0.985352V39.2935C217.984 39.5262 218.09 39.7484 218.09 39.96V40.2139C218.09 40.4043 217.984 40.6159 217.772 40.8486V40.9438C219.423 41.4093 220.766 42.5308 221.803 44.3081C222.396 46.1912 223.633 52.0417 225.517 61.8594C226.384 64.4196 226.818 65.7949 226.818 65.9854C226.818 66.6201 225.421 67.1068 222.628 67.4453C222.099 67.6781 221.444 67.7944 220.661 67.7944C220.237 67.7944 219.603 67.3818 218.756 66.5566H218.185C215.075 69.5189 211.361 71 207.045 71H206.569C204.749 71 202.993 70.2594 201.3 68.7783C199.713 66.7682 198.92 64.7687 198.92 62.7798C198.92 58.548 201.829 55.6069 207.648 53.9565C209.785 53.2371 211.679 52.5177 213.329 51.7983C214.472 50.9943 215.043 50.2326 215.043 49.5132C215.043 47.7782 214.302 46.5933 212.821 45.9585C212.335 45.8527 211.975 45.7998 211.742 45.7998H211.012C209.298 45.7998 207.764 46.3182 206.41 47.355C205.733 47.884 205.236 49.016 204.918 50.751C204.918 51.2165 202.803 51.7666 198.571 52.4014C198.021 52.4014 197.693 52.0099 197.587 51.2271C197.587 47.2915 199.703 44.361 203.935 42.4355C207.299 40.9967 210.621 40.2773 213.9 40.2773C214.26 40.2773 215.022 40.3302 216.186 40.436L216.122 40.2773V40.0234C216.228 39.4733 216.418 39.1982 216.693 39.1982C216.693 38.0768 216.249 37.04 215.36 36.0879C215.149 36.2995 214.937 36.4053 214.726 36.4053H214.472C214.049 36.4053 213.742 36.109 213.551 35.5166C213.678 34.7972 214.017 34.4375 214.567 34.4375H214.63C215.096 34.4375 215.477 34.8184 215.773 35.5801C216.26 35.8975 216.598 36.3418 216.789 36.9131H216.852V0.985352C216.852 0.900716 216.968 0.794922 217.201 0.667969ZM215.963 44.562C215.963 45.366 216.45 45.8315 217.423 45.9585C218.249 45.7892 218.661 45.3026 218.661 44.4985C218.45 43.7157 218.153 43.3242 217.772 43.3242V43.7368C217.772 43.8215 217.656 43.9378 217.423 44.0859H217.201C217.095 44.0859 216.979 43.9696 216.852 43.7368V43.3242H216.789C216.238 43.6416 215.963 44.0542 215.963 44.562ZM206.569 61.2881V61.7642C206.823 64.0705 207.807 65.2236 209.521 65.2236C209.521 65.2871 209.774 65.3188 210.282 65.3188H211.107C212.737 65.3188 214.355 64.5783 215.963 63.0972C216.662 61.8911 217.011 60.7909 217.011 59.7964C217.011 58.019 216.736 56.6755 216.186 55.7656C215.974 55.6598 215.784 55.6069 215.614 55.6069C212.06 56.8553 209.595 57.8709 208.219 58.6538C207.119 59.6694 206.569 60.5475 206.569 61.2881ZM230.785 0.82666H231.039C231.124 0.82666 231.24 0.943034 231.388 1.17578V24.1543C231.811 23.8369 232.213 23.3291 232.594 22.6309C232.806 22.4404 233.007 22.3452 233.197 22.3452H233.356C233.991 22.451 234.308 22.7684 234.308 23.2974V23.7417C234.075 24.2072 233.79 24.4399 233.451 24.4399H233.197C232.986 24.4399 232.732 24.3236 232.436 24.0908C231.737 24.9583 231.388 25.6777 231.388 26.249V27.4551C231.621 27.6878 231.737 27.91 231.737 28.1216V28.3755C231.737 28.5871 231.621 28.8198 231.388 29.0737V29.9307H231.483C233.832 29.9307 235.006 30.1951 235.006 30.7241C235.112 31.1473 235.165 31.5493 235.165 31.9302L235.292 68.7466C235.461 72.8091 234.911 74.5864 233.642 74.0786V74.1738L232.594 74.0786H229.674C228.003 74.0786 227.167 73.6237 227.167 72.7139V31.4858C227.167 30.4491 227.939 29.9307 229.484 29.9307H230.436V29.2642C230.055 29.2642 229.801 28.9679 229.674 28.3755V28.2168C229.801 27.582 230.055 27.2646 230.436 27.2646V1.17578C230.436 1.09115 230.552 0.974772 230.785 0.82666ZM229.484 32.9458C229.484 33.771 230.002 34.2576 231.039 34.4058C231.907 34.2365 232.34 33.7287 232.34 32.8823C232.108 32.0783 231.79 31.6763 231.388 31.6763V32.0889C231.388 32.1735 231.272 32.2899 231.039 32.438H230.785C230.701 32.438 230.584 32.3216 230.436 32.0889V31.6763H230.341C229.77 31.9937 229.484 32.4168 229.484 32.9458ZM252.018 0.63623H252.272C252.357 0.63623 252.473 0.752604 252.621 0.985352V34.6914C253.044 34.374 253.446 33.8662 253.827 33.168C254.018 32.9987 254.208 32.9141 254.398 32.9141H254.589C255.202 32.9987 255.509 33.3055 255.509 33.8345V34.2788C255.277 34.7231 255.001 34.9453 254.684 34.9453H254.398C254.208 34.9453 253.954 34.8289 253.637 34.5962C252.96 35.4849 252.621 36.2043 252.621 36.7544V37.9604C252.854 38.1932 252.97 38.4154 252.97 38.627V38.8809C252.97 39.0924 252.854 39.3252 252.621 39.5791V40.1821C254.547 40.1821 256.768 40.9544 259.286 42.499C261.55 44.4033 263.126 46.3076 264.015 48.2119C264.544 48.9313 265.084 50.4442 265.634 52.7505V52.9409C265.634 53.7661 264.036 54.4749 260.841 55.0674C252.23 57.3525 247.437 58.6644 246.464 59.0029C246.168 59.3203 246.02 59.6694 246.02 60.0503V60.3042C246.654 62.0815 247.649 63.3617 249.003 64.1445C249.913 64.61 250.664 64.8428 251.256 64.8428H251.828C255.192 64.8428 257.646 63.4463 259.191 60.6533C259.699 59.3415 260.535 58.6855 261.698 58.6855C262.947 58.2835 264.057 57.9979 265.031 57.8286C265.771 57.8286 266.142 58.1989 266.142 58.9395C266.142 60.6322 265.401 62.6846 263.92 65.0967C262.164 67.4665 259.678 69.1169 256.461 70.0479C254.726 70.6826 252.812 71 250.717 71C248.537 70.7884 246.855 70.4181 245.67 69.8892C242.518 68.4292 240.211 66.1758 238.751 63.1289C237.44 60.6322 236.784 57.8286 236.784 54.7183V54.4644C236.784 54.3374 236.752 54.2316 236.688 54.147C236.942 51.2905 237.831 48.7197 239.354 46.4346C241.216 43.7262 243.893 41.8431 247.384 40.7852C248.992 40.3197 250.421 40.0869 251.669 40.0869V39.7378C251.288 39.7378 251.034 39.4521 250.907 38.8809V38.7222C251.034 38.0874 251.288 37.77 251.669 37.77V0.985352C251.669 0.900716 251.785 0.784342 252.018 0.63623ZM250.717 43.4194C250.717 44.2446 251.235 44.7313 252.272 44.8794C253.118 44.7101 253.542 44.2023 253.542 43.356C253.33 42.5519 253.023 42.1499 252.621 42.1499V42.5625C252.621 42.6683 252.505 42.7847 252.272 42.9116H252.018C251.933 42.9116 251.817 42.7952 251.669 42.5625V42.1499H251.574C251.002 42.4673 250.717 42.8905 250.717 43.4194ZM244.147 52.4966C244.147 53.1102 244.401 53.5651 244.909 53.8613H245.321C246.041 53.8613 249.553 52.9515 255.858 51.1318C256.155 50.8356 256.303 50.5817 256.303 50.3701V50.1162C256.303 49.2487 255.414 48.1908 253.637 46.9424C252.79 46.4769 251.933 46.2441 251.066 46.2441C248.315 46.2441 246.21 47.4502 244.75 49.8623C244.348 50.8991 244.147 51.7772 244.147 52.4966Z" fill="#46A358"/>
</svg>
